<mxfile host="65bd71144e">
    <diagram id="fqJJkwBkz44CMxTMktGS" name="Página-1">
        <mxGraphModel dx="971" dy="523" grid="1" gridSize="10" guides="1" tooltips="1" connect="1" arrows="1" fold="1" page="1" pageScale="1" pageWidth="827" pageHeight="1169" math="0" shadow="0">
            <root>
                <mxCell id="0"/>
                <mxCell id="1" parent="0"/>
                <mxCell id="2" value="Actuación arqueológica" style="swimlane;fontStyle=0;childLayout=stackLayout;horizontal=1;startSize=26;fillColor=none;horizontalStack=0;resizeParent=1;resizeParentMax=0;resizeLast=0;collapsible=1;marginBottom=0;" vertex="1" parent="1">
                    <mxGeometry x="224" y="40" width="380" height="120" as="geometry"/>
                </mxCell>
                <mxCell id="3" value="Fecha inicio: 1 tiempo&#10;&#10;Fecha fin: 1 tiempo&#10;&#10;Tipo de actuación: 1 texto (tipos: sondeo, excavación o seguimiento)" style="text;strokeColor=none;fillColor=none;align=left;verticalAlign=top;spacingLeft=4;spacingRight=4;overflow=hidden;rotatable=0;points=[[0,0.5],[1,0.5]];portConstraint=eastwest;" vertex="1" parent="2">
                    <mxGeometry y="26" width="380" height="94" as="geometry"/>
                </mxCell>
            </root>
        </mxGraphModel>
    </diagram>
</mxfile>
